<?xml version="1.0" encoding="UTF-8"?>
<svg id="Layer_1" data-name="Layer 1" xmlns="http://www.w3.org/2000/svg" viewBox="0 0 537.62 513.84">
  <defs>
    <style>
      .cls-1, .cls-2 {
        fill: #fff;
        stroke-width: 0px;
      }

      .cls-2 {
        fill-rule: evenodd;
      }
    </style>
  </defs>
  <path class="cls-2" d="m294.17,396.81c-2.36-1.32-4.8-2.49-7.32-3.5-7.18-2.88-15.01-4.46-23.2-4.46-33.29,0-60.51,26.03-62.4,58.85-.07,1.2-.11,2.42-.11,3.65,0,34.51,27.99,62.5,62.51,62.5s62.49-27.99,62.49-62.5v-.07c-.03-23.4-12.92-43.8-31.97-54.48Zm-18.92,77.25c0,6.6-4.48,11.96-10,11.96s-10-5.36-10-11.96v-42.3c0-4.12,1.75-7.77,4.41-9.92.56-.63,1.24-1.17,2.05-1.58,2.18-1.1,4.86-1.01,6.99.17.19.11.36.24.53.36,3.54,1.84,6.01,6.06,6.01,10.97v42.3Z"/>
  <g>
    <path class="cls-1" d="m28.02,88.62l-.07,13.8h24.6v-29.83c-7.79,5.87-15.99,11.22-24.53,16.03Z"/>
    <path class="cls-1" d="m.63,101.78l-.63.52,24.6.12v-11.59c-7.73,4.11-15.73,7.77-23.97,10.95Z"/>
    <path class="cls-1" d="m55.9,69.34v32.96l23.49.12,1.11-55.21c-7.64,7.95-15.86,15.36-24.6,22.13Z"/>
    <path class="cls-1" d="m84.33,44.41l-.47,58.01h24.6l-.45-88.91c-6.99,10.99-14.92,21.33-23.67,30.9Z"/>
    <path class="cls-1" d="m294.08,37.37v54.8s2.14,296.59,2.14,296.59c20.46,11.47,34.3,33.38,34.33,58.51l.62-345.47,95.05-.12c13.02-24.41,30.45-46.11,51.25-64.02l-183.39-.29Zm132.08,32.7c0,5.52-5.58,9.99-12.46,9.99h-70.11c-6.88,0-12.45-4.47-12.45-9.99,0,0,0,0,0,0,0,0,0,0,0,0,0-5.52,5.57-10,12.45-10h70.11c6.88,0,12.46,4.48,12.46,10,0,0,0,0,0,0,0,0,0,0,0,0Z"/>
    <path class="cls-1" d="m537.62,0l-1.07,1.08c-17.38,7.29-33.63,16.72-48.43,27.97l-201.44.33-.84,61.78,2.52,293.84c-7.71-3.09-16.12-4.79-24.92-4.79-35.75,0-64.98,27.96-67.01,63.21V103.31l-83.53-1.01-1.09-94.68c1.49-2.51,2.94-5.04,4.33-7.62h421.48Z"/>
  </g>
</svg>